<svg width="20" height="20" viewBox="0 0 20 20" fill="none" xmlns="http://www.w3.org/2000/svg">
<path d="M9.99901 9.91463C9.04513 9.91463 8.26525 9.61168 7.65934 9.00578C7.05344 8.39987 6.75049 7.61998 6.75049 6.66609C6.75049 5.71222 7.05344 4.93199 7.65934 4.3254C8.26525 3.71882 9.04513 3.41553 9.99901 3.41553C10.9529 3.41553 11.7339 3.71882 12.3422 4.3254C12.9504 4.93199 13.2546 5.71222 13.2546 6.66609C13.2546 7.61998 12.9504 8.39987 12.3422 9.00578C11.7339 9.61168 10.9529 9.91463 9.99901 9.91463ZM3.20882 16.8562V14.7644C3.20882 14.215 3.34712 13.7425 3.62372 13.3469C3.90032 12.9512 4.25749 12.6507 4.69524 12.4454C5.63243 12.0254 6.53302 11.7105 7.39701 11.5005C8.26101 11.2905 9.12824 11.1855 9.9987 11.1855C10.8755 11.1855 11.7421 11.2939 12.5986 11.5109C13.455 11.7278 14.3496 12.0407 15.2823 12.4495C15.739 12.6522 16.1055 12.9507 16.3818 13.3452C16.6581 13.7396 16.7962 14.2123 16.7962 14.7631V16.8562H3.20882ZM4.6282 15.4368H15.3719V14.7833C15.3719 14.5632 15.3059 14.3534 15.1739 14.1537C15.042 13.9541 14.8788 13.8062 14.6844 13.7099C13.8088 13.2893 13.0071 13.0008 12.2793 12.8444C11.5515 12.688 10.7909 12.6098 9.99757 12.6098C9.21086 12.6098 8.445 12.688 7.69999 12.8444C6.95497 13.0008 6.15398 13.2891 5.29701 13.7092C5.10113 13.8054 4.9407 13.9535 4.8157 14.1532C4.6907 14.353 4.6282 14.563 4.6282 14.7833V15.4368ZM9.99901 8.49526C10.5281 8.49526 10.9655 8.32258 11.3114 7.97721C11.6573 7.63187 11.8302 7.19455 11.8302 6.66526C11.8302 6.1346 11.6576 5.69689 11.3124 5.35211C10.9672 5.00732 10.5301 4.83492 10.0011 4.83492C9.472 4.83492 9.03453 5.0074 8.68866 5.35234C8.34279 5.69727 8.16986 6.13409 8.16986 6.6628C8.16986 7.19287 8.34246 7.63079 8.68766 7.97657C9.03284 8.32236 9.46995 8.49526 9.99901 8.49526Z" fill="black"/>
</svg>
