<svg width="20" height="20" viewBox="0 0 20 20" fill="none" xmlns="http://www.w3.org/2000/svg">
<path d="M16.25 17.9167L15.0833 16.75L16 15.8333H9.83334C9.66667 16.3333 9.36806 16.7361 8.93751 17.0417C8.50695 17.3472 8.02778 17.5 7.50001 17.5C6.97223 17.5 6.49653 17.3472 6.07292 17.0417C5.64931 16.7361 5.34723 16.3333 5.16667 15.8333H4.16667C3.47223 15.8333 2.88195 15.5903 2.39584 15.1042C1.90973 14.6181 1.66667 14.0278 1.66667 13.3333V8.33333H6.66667V5.83333H1.66667V4.16667H12.5C12.9583 4.16667 13.3507 4.32986 13.6771 4.65625C14.0035 4.98264 14.1667 5.375 14.1667 5.83333V14.1667H15.9583L15.0833 13.2917L16.25 12.0833L19.1667 15L16.25 17.9167ZM8.33334 8.33333H12.5V5.83333H8.33334V8.33333ZM7.50001 15.8333C7.73612 15.8333 7.93403 15.7535 8.09376 15.5938C8.25348 15.434 8.33334 15.2361 8.33334 15C8.33334 14.7639 8.25348 14.566 8.09376 14.4063C7.93403 14.2465 7.73612 14.1667 7.50001 14.1667C7.26389 14.1667 7.06598 14.2465 6.90626 14.4063C6.74653 14.566 6.66667 14.7639 6.66667 15C6.66667 15.2361 6.74653 15.434 6.90626 15.5938C7.06598 15.7535 7.26389 15.8333 7.50001 15.8333ZM5.16667 14.1667C5.34723 13.6667 5.64931 13.2639 6.07292 12.9583C6.49653 12.6528 6.97223 12.5 7.50001 12.5C8.02778 12.5 8.50695 12.6528 8.93751 12.9583C9.36806 13.2639 9.66667 13.6667 9.83334 14.1667H12.5V10H3.33334V13.3333C3.33334 13.5694 3.4132 13.7674 3.57292 13.9271C3.73264 14.0868 3.93056 14.1667 4.16667 14.1667H5.16667ZM5.16667 10H3.33334H12.5H5.16667Z" fill="black"/>
</svg>
